<?xml version="1.0" encoding="UTF-8"?>
<svg id="Layer_2" data-name="Layer 2" xmlns="http://www.w3.org/2000/svg" viewBox="0 0 195.72 118.15">
  <defs>
    <style>
      .cls-1 {
        font-family: ButlerStencil, 'Butler Stencil';
        font-size: 8.85px;
      }

      .cls-1, .cls-2 {
        fill: #fff;
      }

      .cls-2 {
        stroke-width: 0px;
      }
    </style>
  </defs>
  <g id="Layer_1-2" data-name="Layer 1">
    <path class="cls-2" d="M69.42,89.46c-2.34,16.35-17.91,28.75-34.23,28.69-26.54.16-44.35-28.22-30.21-51.36,4.22-6.8,10.91-11.92,18.41-14.34-7.34,2.84-13.74,8.07-17.57,14.85-8.86,15.27-3.56,32.84,8.85,42.18l.46-16.05.48,16.73c.78.56,1.59,1.07,2.43,1.55l.71-26.08.73,26.87c.47.24.95.48,1.43.69l.72-32.86.73,33.48c.28.11.56.22.85.33l.98-55.56.99,56.21c.46.13.92.25,1.38.37l.98-67.68.99,68.11c.45.08.91.16,1.37.22l.99-102.16.99,102.38c.46.04.92.07,1.38.08L34.25,0l.99,116.15c.46-.02.92-.04,1.37-.07l.99-107.95.99,107.78c.46-.05.92-.11,1.37-.18l.99-81.43.98,81.09c.34-.07.68-.14,1.02-.22l.99-80.87.98,80.35c.53-.15,1.06-.32,1.57-.5l.99-58.6.98,57.86c.84-.35,1.65-.72,2.44-1.13l.74-39.07.72,38.27c.67-.38,1.31-.79,1.93-1.22l.47-10.09.44,9.46c19.17-14.03,18.48-46.62-9.14-57.34,15.5,4.49,26.32,21.08,23.36,37.17Z"/>
    <g>
      <g>
        <g>
          <path class="cls-2" d="M93.89,83.22c0,1.88.63,2.48,1.77,2.48v.35h-6.1v-.35c1.17,0,1.69-.55,1.69-2.83v-13.56c0-1.69-.49-2.07-1.69-2.07v-.35h4.33v16.34Z"/>
          <path class="cls-2" d="M106.12,85.7v.35h-2.07c-3.51,0-3.08-.03-4.66-5.94-.55-2.15-2.26-2.67-3.38-2.81v-.44c2.42-.08,4.14-.65,4.14-4.79,0-4.22-1.8-4.77-4.14-4.85v-.33c4.58.11,7.16,1.01,7.16,5.17,0,3.7-2.15,4.79-5.07,4.98,1.8.08,3.81.25,5.07,6.24.55,2.07,2.23,2.34,2.94,2.4Z"/>
        </g>
        <g>
          <path class="cls-2" d="M111.98,86.05h-4.58v-.35c1.04-.3,1.09-.79,1.09-2.18v-7.54c0-.95-.22-1.34-1.36-1.63v-.33s3.73-.79,3.73-.79v10.3c0,1.52.14,1.93,1.12,2.18v.35Z"/>
          <path class="cls-2" d="M108.03,69.58c0-.79.6-1.39,1.39-1.39s1.39.6,1.39,1.39-.63,1.39-1.39,1.39-1.39-.63-1.39-1.39Z"/>
        </g>
        <g>
          <path class="cls-2" d="M122.55,84.96s-.76,1.09-2.78,1.31v-.38c2.12-.46,1.63-2.97-.25-4.19l-2.75-1.66c-2.59-1.74-3.21-3.38-2.1-5.26,0,0,.68-1.28,2.89-1.5v.38c-1.91.44-1.85,2.61.27,3.98l2.75,1.72c2.48,1.52,3.27,3.73,1.96,5.61Z"/>
          <path class="cls-2" d="M114.32,81.51h.33c.19,1.66.79,4.09,3.7,4.41v.35c-2.78-.14-4.03-1.06-4.03-1.06v-3.7Z"/>
          <path class="cls-2" d="M122.71,77.42h-.35c-.16-1.47-.82-3.49-3.38-3.79v-.35c2.61.11,3.73.82,3.73.82v3.32Z"/>
        </g>
        <path class="cls-2" d="M135.9,82.7l.3.14c-.27,1.28-1.8,3.46-5.01,3.46-3.38,0-5.8-2.83-5.8-6.43,0-3.7,2.18-6.21,5.18-6.59v.35c-1.39.49-2.61,2.61-2.61,5.53h6.35c0-3.24-1.14-5.04-2.34-5.53v-.35c2.86.3,4.69,2.29,4.69,6.24h-8.69c.11,3.68,1.74,5.15,3.87,5.37,1.66.16,3.57-.84,4.09-2.18Z"/>
        <path class="cls-2" d="M159.35,82.35c0,2.23-.08,2.97,1.33,3.35v.35h-4.82v-.35c.73-.27.79-.93.79-3.35v-5.26s-7.46,0-7.46,0v5.26c0,2.78.03,3.08.79,3.35v.35h-4.85v-.35c1.44-.38,1.36-.74,1.36-3.35v-11.68c0-2.45-.06-3.19-1.36-3.43v-.35h4.85v.35c-.76.25-.79.79-.79,3.43v5.96s7.46,0,7.46,0v-5.96c0-2.64-.03-3.19-.79-3.43v-.35h4.82v.35c-1.28.25-1.33.79-1.33,3.43v11.68Z"/>
        <g>
          <path class="cls-2" d="M166.57,86.05h-4.58v-.35c1.04-.3,1.09-.79,1.09-2.18v-7.54c0-.95-.22-1.34-1.36-1.63v-.33s3.73-.79,3.73-.79v10.3c0,1.52.14,1.93,1.12,2.18v.35Z"/>
          <path class="cls-2" d="M162.62,69.58c0-.79.6-1.39,1.39-1.39s1.39.6,1.39,1.39-.63,1.39-1.39,1.39-1.39-.63-1.39-1.39Z"/>
        </g>
        <g>
          <path class="cls-2" d="M176.6,91.37l.19.33c-3.54,1.69-7.41,1.23-8.47-.74-.79-1.47-.11-3.02,1.09-4.11l.24.25c-1.01,1.53.55,3.27.49,3.21,1.17,1.39,4.11,2.07,6.46,1.06Z"/>
          <path class="cls-2" d="M180.41,87.61s-.08,1.85-2.4,3.4l-.22-.35c1.55-1.25,1.39-2.64,1.39-2.64,0,0-.08-1.39-2.42-1.39h-3.62c-1.85,0-4.03-.33-4.03-2.64,0,0-.11-2.29,2.43-3.02-1.44-.63-2.15-2.12-2.15-3.57,0-2.02,1.66-3.84,4.39-4.11v.35c-1.12.27-2.02,1.25-2.02,3.76s.98,3.49,2.02,3.79v.35c-.71-.06-1.34-.16-1.85-.38-1.39.27-2.69,3,.55,3h3.27c1.88,0,5.15-.11,4.68,3.46Z"/>
          <path class="cls-2" d="M181.83,75.19c-.52.44-1.31.38-1.74-.16-.22-.27-.3-.6-.22-.9.05-.22-.82-.11-1.31.6.68.68,1.04,1.69,1.04,2.67,0,2.04-1.66,3.87-4.41,4.14v-.35c1.06-.27,2.04-1.28,2.04-3.79,0-2.48-1.03-3.46-2.04-3.73v-.38c1.31.11,2.4.57,3.13,1.23.71-1.06,1.82-1.47,2.45-1.52.46-.05.95.11,1.25.46.43.54.35,1.31-.19,1.74Z"/>
        </g>
        <g>
          <path class="cls-2" d="M187.71,85.7v.35h-4.58v-.35c1.03-.3,1.09-.79,1.09-2.18v-14.93c0-.95-.25-1.28-1.36-1.47v-.35s3.73-.82,3.73-.82v17.57c0,1.5.14,1.93,1.12,2.18Z"/>
          <path class="cls-2" d="M195.72,85.73v.33h-4.58v-.33c1.04-.3,1.09-.82,1.09-2.21v-5.8c0-1.96-.93-3.1-2.83-3.1-.65,0-1.25.3-1.74.74l-.27-.44c.84-.95,2.24-1.69,3.46-1.69,2.23,0,3.76,1.12,3.76,4.39v5.91c0,1.5.16,1.96,1.12,2.21Z"/>
        </g>
      </g>
      <text class="cls-1" transform="translate(119.56 103.4)"><tspan x="0" y="0">Real Estate</tspan></text>
      <polygon class="cls-2" points="114.3 100.45 97.92 100.2 114.3 99.95 114.3 100.45 114.3 100.45"/>
      <polygon class="cls-2" points="164.08 99.95 180.45 100.2 164.08 100.45 164.08 99.95 164.08 99.95"/>
    </g>
  </g>
</svg>