<svg width="174" height="95" viewBox="0 0 174 95" fill="none" xmlns="http://www.w3.org/2000/svg">
<path d="M89.0685 86V77.962H91.6628C92.2332 77.962 92.7094 78.0654 93.0914 78.2721C93.4761 78.4762 93.7652 78.7601 93.9588 79.1238C94.155 79.4849 94.2532 79.8996 94.2532 80.3679C94.2532 80.8363 94.155 81.2497 93.9588 81.6082C93.7652 81.9666 93.4774 82.2466 93.0954 82.4481C92.7133 82.6495 92.2397 82.7503 91.6746 82.7503H89.4649V82.0791H91.655C92.0736 82.0791 92.4216 82.0098 92.6989 81.8711C92.9789 81.7324 93.1869 81.5349 93.323 81.2785C93.4617 81.0221 93.531 80.7185 93.531 80.3679C93.531 80.0173 93.4617 79.7112 93.323 79.4495C93.1843 79.1853 92.975 78.9812 92.695 78.8373C92.4177 78.6934 92.0671 78.6214 91.6432 78.6214H89.8025V86H89.0685ZM92.6126 82.3735L94.5907 86H93.7429L91.7845 82.3735H92.6126ZM98.2682 86.1256C97.7057 86.1256 97.219 85.9948 96.8082 85.7331C96.3974 85.4688 96.0795 85.1038 95.8545 84.6381C95.6321 84.1697 95.5209 83.6307 95.5209 83.0211C95.5209 82.4141 95.6321 81.875 95.8545 81.4041C96.0795 80.9305 96.3896 80.5602 96.7847 80.2934C97.1824 80.0239 97.6416 79.8891 98.1623 79.8891C98.4893 79.8891 98.8046 79.9493 99.1081 80.0696C99.4116 80.1874 99.6838 80.3692 99.9245 80.6152C100.168 80.8585 100.36 81.166 100.501 81.5375C100.643 81.9064 100.713 82.3434 100.713 82.8484V83.1938H96.0036V82.5776H99.9991C99.9991 82.1903 99.9206 81.8423 99.7636 81.5336C99.6092 81.2222 99.3933 80.9763 99.116 80.7957C98.8412 80.6152 98.5233 80.5249 98.1623 80.5249C97.7802 80.5249 97.444 80.627 97.1536 80.8311C96.8631 81.0351 96.6355 81.3046 96.4707 81.6396C96.3084 81.9745 96.226 82.3408 96.2234 82.7385V83.1074C96.2234 83.5863 96.3058 84.0049 96.4707 84.3634C96.6381 84.7192 96.8749 84.9953 97.1811 85.1915C97.4872 85.3877 97.8496 85.4859 98.2682 85.4859C98.5534 85.4859 98.8033 85.4414 99.0179 85.3524C99.235 85.2634 99.4169 85.1444 99.5634 84.9953C99.7125 84.8435 99.8251 84.6773 99.9009 84.4968L100.564 84.7127C100.473 84.9665 100.322 85.2007 100.113 85.4152C99.9062 85.6298 99.6471 85.8025 99.3358 85.9333C99.027 86.0615 98.6712 86.1256 98.2682 86.1256ZM103.937 86.1374C103.573 86.1374 103.241 86.0667 102.94 85.9254C102.639 85.7815 102.399 85.5748 102.221 85.3053C102.044 85.0332 101.955 84.7035 101.955 84.3163C101.955 84.018 102.011 83.7668 102.123 83.5627C102.236 83.3586 102.395 83.1912 102.602 83.0603C102.809 82.9295 103.054 82.8262 103.336 82.7503C103.619 82.6744 103.93 82.6155 104.27 82.5737C104.608 82.5318 104.893 82.4952 105.126 82.4638C105.361 82.4324 105.541 82.3827 105.664 82.3146C105.786 82.2466 105.848 82.1367 105.848 81.9849V81.8436C105.848 81.4329 105.725 81.1097 105.479 80.8742C105.236 80.6361 104.885 80.5171 104.427 80.5171C103.993 80.5171 103.638 80.6126 103.364 80.8036C103.091 80.9946 102.9 81.2196 102.791 81.4786L102.127 81.2392C102.263 80.9095 102.452 80.6466 102.692 80.4503C102.933 80.2515 103.203 80.1089 103.501 80.0225C103.799 79.9336 104.101 79.8891 104.408 79.8891C104.638 79.8891 104.877 79.9192 105.126 79.9794C105.377 80.0396 105.61 80.1442 105.824 80.2934C106.039 80.4399 106.213 80.6453 106.346 80.9095C106.48 81.1712 106.547 81.5035 106.547 81.9064V86H105.848V85.0463H105.805C105.721 85.2242 105.597 85.3969 105.432 85.5643C105.267 85.7318 105.06 85.8692 104.812 85.9765C104.563 86.0837 104.272 86.1374 103.937 86.1374ZM104.031 85.4976C104.402 85.4976 104.724 85.4152 104.996 85.2504C105.268 85.0855 105.478 84.867 105.624 84.5949C105.773 84.3202 105.848 84.018 105.848 83.6883V82.817C105.796 82.8667 105.708 82.9112 105.585 82.9504C105.465 82.9897 105.325 83.025 105.165 83.0564C105.008 83.0852 104.851 83.11 104.694 83.131C104.537 83.1519 104.396 83.1702 104.27 83.1859C103.93 83.2278 103.64 83.2932 103.399 83.3822C103.158 83.4711 102.974 83.5941 102.846 83.7511C102.717 83.9055 102.653 84.1043 102.653 84.3477C102.653 84.714 102.784 84.9979 103.046 85.1993C103.307 85.3982 103.636 85.4976 104.031 85.4976ZM109.104 77.962V86H108.405V77.962H109.104ZM114.206 86V77.962H118.868V78.6214H114.94V81.6474H118.621V82.3068H114.94V85.3406H118.947V86H114.206ZM124.673 81.2942L124.033 81.4747C123.971 81.2942 123.882 81.1306 123.767 80.9841C123.651 80.8376 123.501 80.7212 123.315 80.6348C123.132 80.5485 122.904 80.5053 122.632 80.5053C122.224 80.5053 121.889 80.6021 121.628 80.7957C121.366 80.9894 121.235 81.2392 121.235 81.5454C121.235 81.8044 121.324 82.015 121.502 82.1773C121.683 82.3369 121.96 82.4638 122.334 82.558L123.245 82.7817C123.75 82.9047 124.128 83.0996 124.379 83.3665C124.633 83.6334 124.76 83.9683 124.76 84.3712C124.76 84.7114 124.665 85.0136 124.477 85.2778C124.289 85.5421 124.026 85.7501 123.688 85.9019C123.353 86.051 122.965 86.1256 122.522 86.1256C121.934 86.1256 121.448 85.9935 121.066 85.7292C120.684 85.4623 120.44 85.0777 120.332 84.5753L121.004 84.4105C121.09 84.7689 121.259 85.0397 121.51 85.2229C121.764 85.406 122.097 85.4976 122.511 85.4976C122.974 85.4976 123.344 85.3943 123.621 85.1876C123.899 84.9782 124.037 84.7166 124.037 84.4026C124.037 84.1593 123.956 83.9552 123.794 83.7903C123.632 83.6229 123.386 83.4999 123.056 83.4214L122.071 83.1859C121.548 83.0603 121.161 82.8615 120.909 82.5894C120.658 82.3172 120.533 81.9797 120.533 81.5768C120.533 81.2445 120.623 80.9527 120.803 80.7015C120.984 80.4477 121.232 80.2489 121.549 80.105C121.866 79.9611 122.227 79.8891 122.632 79.8891C123.184 79.8891 123.625 80.0147 123.955 80.2659C124.287 80.5145 124.527 80.8572 124.673 81.2942ZM128.664 79.9715V80.5799H125.787V79.9715H128.664ZM126.686 78.5272H127.388V84.4262C127.388 84.6773 127.431 84.8749 127.518 85.0188C127.604 85.1601 127.717 85.2608 127.855 85.321C127.994 85.3786 128.142 85.4074 128.299 85.4074C128.39 85.4074 128.469 85.4021 128.534 85.3917C128.6 85.3786 128.657 85.3655 128.707 85.3524L128.856 85.9843C128.788 86.0105 128.704 86.034 128.605 86.0549C128.505 86.0785 128.382 86.0903 128.236 86.0903C127.98 86.0903 127.732 86.034 127.494 85.9215C127.259 85.809 127.065 85.6415 126.913 85.4191C126.762 85.1967 126.686 84.9207 126.686 84.591V78.5272ZM131.934 86.1374C131.57 86.1374 131.238 86.0667 130.937 85.9254C130.636 85.7815 130.397 85.5748 130.219 85.3053C130.041 85.0332 129.952 84.7035 129.952 84.3163C129.952 84.018 130.008 83.7668 130.121 83.5627C130.233 83.3586 130.393 83.1912 130.6 83.0603C130.806 82.9295 131.051 82.8262 131.334 82.7503C131.616 82.6744 131.928 82.6155 132.268 82.5737C132.605 82.5318 132.89 82.4952 133.123 82.4638C133.359 82.4324 133.538 82.3827 133.661 82.3146C133.784 82.2466 133.845 82.1367 133.845 81.9849V81.8436C133.845 81.4329 133.722 81.1097 133.477 80.8742C133.233 80.6361 132.883 80.5171 132.425 80.5171C131.99 80.5171 131.636 80.6126 131.361 80.8036C131.089 80.9946 130.898 81.2196 130.788 81.4786L130.125 81.2392C130.261 80.9095 130.449 80.6466 130.69 80.4503C130.931 80.2515 131.2 80.1089 131.498 80.0225C131.797 79.9336 132.099 79.8891 132.405 79.8891C132.635 79.8891 132.875 79.9192 133.123 79.9794C133.374 80.0396 133.607 80.1442 133.822 80.2934C134.036 80.4399 134.21 80.6453 134.344 80.9095C134.477 81.1712 134.544 81.5035 134.544 81.9064V86H133.845V85.0463H133.802C133.719 85.2242 133.594 85.3969 133.429 85.5643C133.265 85.7318 133.058 85.8692 132.809 85.9765C132.561 86.0837 132.269 86.1374 131.934 86.1374ZM132.028 85.4976C132.4 85.4976 132.722 85.4152 132.994 85.2504C133.266 85.0855 133.475 84.867 133.622 84.5949C133.771 84.3202 133.845 84.018 133.845 83.6883V82.817C133.793 82.8667 133.705 82.9112 133.582 82.9504C133.462 82.9897 133.322 83.025 133.163 83.0564C133.006 83.0852 132.849 83.11 132.692 83.131C132.535 83.1519 132.393 83.1702 132.268 83.1859C131.928 83.2278 131.637 83.2932 131.396 83.3822C131.156 83.4711 130.971 83.5941 130.843 83.7511C130.715 83.9055 130.651 84.1043 130.651 84.3477C130.651 84.714 130.781 84.9979 131.043 85.1993C131.305 85.3982 131.633 85.4976 132.028 85.4976ZM138.777 79.9715V80.5799H135.9V79.9715H138.777ZM136.799 78.5272H137.501V84.4262C137.501 84.6773 137.545 84.8749 137.631 85.0188C137.717 85.1601 137.83 85.2608 137.968 85.321C138.107 85.3786 138.255 85.4074 138.412 85.4074C138.504 85.4074 138.582 85.4021 138.647 85.3917C138.713 85.3786 138.77 85.3655 138.82 85.3524L138.969 85.9843C138.901 86.0105 138.817 86.034 138.718 86.0549C138.619 86.0785 138.496 86.0903 138.349 86.0903C138.093 86.0903 137.845 86.034 137.607 85.9215C137.372 85.809 137.178 85.6415 137.026 85.4191C136.875 85.1967 136.799 84.9207 136.799 84.591V78.5272ZM142.736 86.1256C142.174 86.1256 141.687 85.9948 141.276 85.7331C140.865 85.4688 140.547 85.1038 140.322 84.6381C140.1 84.1697 139.989 83.6307 139.989 83.0211C139.989 82.4141 140.1 81.875 140.322 81.4041C140.547 80.9305 140.857 80.5602 141.253 80.2934C141.65 80.0239 142.109 79.8891 142.63 79.8891C142.957 79.8891 143.272 79.9493 143.576 80.0696C143.879 80.1874 144.152 80.3692 144.392 80.6152C144.636 80.8585 144.828 81.166 144.969 81.5375C145.111 81.9064 145.181 82.3434 145.181 82.8484V83.1938H140.471V82.5776H144.467C144.467 82.1903 144.388 81.8423 144.231 81.5336C144.077 81.2222 143.861 80.9763 143.584 80.7957C143.309 80.6152 142.991 80.5249 142.63 80.5249C142.248 80.5249 141.912 80.627 141.621 80.8311C141.331 81.0351 141.103 81.3046 140.939 81.6396C140.776 81.9745 140.694 82.3408 140.691 82.7385V83.1074C140.691 83.5863 140.774 84.0049 140.939 84.3634C141.106 84.7192 141.343 84.9953 141.649 85.1915C141.955 85.3877 142.317 85.4859 142.736 85.4859C143.021 85.4859 143.271 85.4414 143.486 85.3524C143.703 85.2634 143.885 85.1444 144.031 84.9953C144.18 84.8435 144.293 84.6773 144.369 84.4968L145.032 84.7127C144.94 84.9665 144.79 85.2007 144.581 85.4152C144.374 85.6298 144.115 85.8025 143.804 85.9333C143.495 86.0615 143.139 86.1256 142.736 86.1256Z" fill="#0F2034"/>
<path d="M51.6366 73.7713C49.896 85.8692 38.3149 95.0444 26.1758 95C6.43503 95.1184 -6.81229 74.1191 3.70523 56.997C6.84413 51.9655 11.8202 48.177 17.3988 46.3864C11.9392 48.4878 7.17884 52.3577 4.33004 57.3744C-2.26015 68.6732 1.68206 81.6738 10.9128 88.5848L11.2549 76.7089L11.612 89.0879C12.1921 89.5023 12.7946 89.8797 13.4194 90.2348L13.9475 70.9374L14.4905 90.8194C14.8401 90.997 15.1972 91.1746 15.5542 91.3299L16.0897 67.0157L16.6327 91.7887C16.841 91.8701 17.0492 91.9515 17.265 92.0329L17.9939 50.9222L18.7303 92.5138C19.0724 92.61 19.4146 92.6988 19.7567 92.7876L20.4857 42.7089L21.222 93.1058C21.5568 93.165 21.8989 93.2242 22.2411 93.2686L22.9774 17.677L23.7138 93.4313C24.056 93.4609 24.3981 93.4831 24.7403 93.4905L25.4767 0L26.213 93.5201C26.5552 93.5053 26.8973 93.4905 27.2321 93.4683L27.9684 13.5926L28.7048 93.3426C29.047 93.3056 29.3891 93.2612 29.7238 93.2094L30.4602 32.9566L31.1891 92.9578C31.442 92.906 31.6949 92.8542 31.9478 92.795L32.6842 32.9566L33.4131 92.4102C33.8074 92.2993 34.2016 92.1735 34.5809 92.0403L35.3173 48.6802L36.0462 91.4927C36.671 91.2337 37.2735 90.96 37.8612 90.6566L38.4116 61.7474L38.9471 90.0647C39.4455 89.7835 39.9215 89.4801 40.3827 89.1619L40.7323 81.696L41.0595 88.6958C55.3185 78.3145 54.8052 54.2001 34.2611 46.268C45.7902 49.5903 53.8383 61.8658 51.6366 73.7713Z" fill="#0F2034"/>
<g clip-path="url(#clip0_263_25)">
<path d="M71.331 65.27C71.331 67.15 71.961 67.75 73.101 67.75V68.1H67.001V67.75C68.171 67.75 68.691 67.2 68.691 64.92V51.35C68.691 49.66 68.201 49.28 67.001 49.28V48.93H71.331V65.27Z" fill="#0F2034"/>
<path d="M83.5612 67.75V68.1H81.4912C77.9812 68.1 78.4112 68.07 76.8312 62.16C76.2812 60.01 74.5712 59.49 73.4512 59.35V58.91C75.8712 58.83 77.5912 58.26 77.5912 54.12C77.5912 49.9 75.7912 49.35 73.4512 49.27V48.94C78.0312 49.05 80.6112 49.95 80.6112 54.11C80.6112 57.81 78.4612 58.9 75.5412 59.09C77.3412 59.17 79.3512 59.34 80.6112 65.33C81.1612 67.4 82.8412 67.67 83.5512 67.73L83.5612 67.75Z" fill="#0F2034"/>
<path d="M89.4208 68.1H84.8408V67.75C85.8808 67.45 85.9308 66.96 85.9308 65.57V58.03C85.9308 57.08 85.7108 56.69 84.5708 56.4V56.07L88.3008 55.28V65.58C88.3008 67.1 88.4408 67.51 89.4208 67.76V68.11V68.1Z" fill="#0F2034"/>
<path d="M85.4707 51.62C85.4707 50.83 86.0707 50.23 86.8607 50.23C87.6507 50.23 88.2507 50.83 88.2507 51.62C88.2507 52.41 87.6207 53.01 86.8607 53.01C86.1007 53.01 85.4707 52.38 85.4707 51.62Z" fill="#0F2034"/>
<path d="M99.991 67.01C99.991 67.01 99.2309 68.1 97.2109 68.32V67.94C99.3309 67.48 98.8409 64.97 96.9609 63.75L94.2109 62.09C91.6209 60.35 91.0009 58.71 92.1109 56.83C92.1109 56.83 92.7909 55.55 95.0009 55.33V55.71C93.0909 56.15 93.1509 58.32 95.2709 59.69L98.0209 61.41C100.501 62.93 101.291 65.14 99.9809 67.02L99.991 67.01Z" fill="#0F2034"/>
<path d="M91.7607 63.55H92.0907C92.2807 65.21 92.8807 67.64 95.7907 67.96V68.31C93.0107 68.17 91.7607 67.25 91.7607 67.25V63.55Z" fill="#0F2034"/>
<path d="M100.151 59.47H99.8009C99.6409 58 98.9809 55.98 96.4209 55.68V55.33C99.0309 55.44 100.151 56.15 100.151 56.15V59.47Z" fill="#0F2034"/>
<path d="M113.341 64.75L113.641 64.89C113.371 66.17 111.841 68.35 108.631 68.35C105.251 68.35 102.831 65.52 102.831 61.92C102.831 58.22 105.011 55.71 108.011 55.33V55.68C106.621 56.17 105.401 58.29 105.401 61.21H111.751C111.751 57.97 110.611 56.17 109.411 55.68V55.33C112.271 55.63 114.101 57.62 114.101 61.57H105.411C105.521 65.25 107.151 66.72 109.281 66.94C110.941 67.1 112.851 66.1 113.371 64.76L113.341 64.75Z" fill="#0F2034"/>
<path d="M136.791 64.4C136.791 66.63 136.711 67.37 138.121 67.75V68.1H133.301V67.75C134.031 67.48 134.091 66.82 134.091 64.4V59.14H126.631V64.4C126.631 67.18 126.661 67.48 127.421 67.75V68.1H122.571V67.75C124.011 67.37 123.931 67.01 123.931 64.4V52.71C123.931 50.26 123.871 49.52 122.571 49.28V48.93H127.421V49.28C126.661 49.53 126.631 50.07 126.631 52.71V58.67H134.091V52.71C134.091 50.07 134.061 49.52 133.301 49.28V48.93H138.121V49.28C136.841 49.53 136.791 50.07 136.791 52.71V64.39V64.4Z" fill="#0F2034"/>
<path d="M144.011 68.1H139.431V67.75C140.471 67.45 140.521 66.96 140.521 65.57V58.03C140.521 57.08 140.301 56.69 139.161 56.4V56.07L142.891 55.28V65.58C142.891 67.1 143.031 67.51 144.011 67.76V68.11V68.1Z" fill="#0F2034"/>
<path d="M140.061 51.62C140.061 50.83 140.661 50.23 141.451 50.23C142.241 50.23 142.841 50.83 142.841 51.62C142.841 52.41 142.211 53.01 141.451 53.01C140.691 53.01 140.061 52.38 140.061 51.62Z" fill="#0F2034"/>
<path d="M154.041 73.41L154.231 73.74C150.691 75.43 146.821 74.97 145.761 73C144.971 71.53 145.651 69.98 146.851 68.89L147.091 69.14C146.081 70.67 147.641 72.41 147.581 72.35C148.751 73.74 151.691 74.42 154.041 73.41Z" fill="#0F2034"/>
<path d="M157.851 69.65C157.851 69.65 157.771 71.5 155.451 73.05L155.231 72.7C156.781 71.45 156.621 70.06 156.621 70.06C156.621 70.06 156.541 68.67 154.201 68.67H150.581C148.731 68.67 146.551 68.34 146.551 66.03C146.551 66.03 146.441 63.74 148.981 63.01C147.541 62.38 146.831 60.89 146.831 59.44C146.831 57.42 148.491 55.6 151.221 55.33V55.68C150.101 55.95 149.201 56.93 149.201 59.44C149.201 61.95 150.181 62.93 151.221 63.23V63.58C150.511 63.52 149.881 63.42 149.371 63.2C147.981 63.47 146.681 66.2 149.921 66.2H153.191C155.071 66.2 158.341 66.09 157.871 69.66L157.851 69.65Z" fill="#0F2034"/>
<path d="M159.271 57.23C158.751 57.67 157.961 57.61 157.531 57.07C157.311 56.8 157.231 56.47 157.311 56.17C157.361 55.95 156.491 56.06 156.001 56.77C156.681 57.45 157.041 58.46 157.041 59.44C157.041 61.48 155.381 63.31 152.631 63.58V63.23C153.691 62.96 154.671 61.95 154.671 59.44C154.671 56.96 153.641 55.98 152.631 55.71V55.33C153.941 55.44 155.031 55.9 155.761 56.56C156.471 55.5 157.581 55.09 158.211 55.04C158.671 54.99 159.161 55.15 159.461 55.5C159.891 56.04 159.811 56.81 159.271 57.24V57.23Z" fill="#0F2034"/>
<path d="M165.151 67.75V68.1H160.571V67.75C161.601 67.45 161.661 66.96 161.661 65.57V50.64C161.661 49.69 161.411 49.36 160.301 49.17V48.82L164.031 48V65.57C164.031 67.07 164.171 67.5 165.151 67.75Z" fill="#0F2034"/>
<path d="M173.161 67.77V68.1H168.581V67.77C169.621 67.47 169.671 66.95 169.671 65.56V59.76C169.671 57.8 168.741 56.66 166.841 56.66C166.191 56.66 165.591 56.96 165.101 57.4L164.831 56.96C165.671 56.01 167.071 55.27 168.291 55.27C170.521 55.27 172.051 56.39 172.051 59.66V65.57C172.051 67.07 172.211 67.53 173.171 67.78L173.161 67.77Z" fill="#0F2034"/>
</g>
<defs>
<clipPath id="clip0_263_25">
<rect width="106.16" height="26.78" fill="white" transform="translate(67.001 48)"/>
</clipPath>
</defs>
</svg>
