<svg width="203" height="53" viewBox="0 0 203 53" fill="none" xmlns="http://www.w3.org/2000/svg">
<g clip-path="url(#clip0_24_159)">
<path d="M8.27986 34.0077C8.27986 37.6026 9.48455 38.75 11.6645 38.75V39.4192H0V38.75C2.23728 38.75 3.23163 37.6982 3.23163 33.3384V7.38975C3.23163 4.15812 2.29465 3.43148 0 3.43148V2.76221H8.27986V34.0077Z" fill="white"/>
<path d="M31.6659 38.7489V39.4182H27.7076C20.9957 39.4182 21.818 39.3608 18.7967 28.0597C17.745 23.9484 14.4751 22.9541 12.3334 22.6864V21.845C16.961 21.692 20.25 20.6021 20.25 12.6855C20.25 4.61599 16.808 3.56428 12.3334 3.4113V2.78027C21.0913 2.99062 26.0248 4.7116 26.0248 12.6664C26.0248 19.7416 21.9136 21.8259 16.3299 22.1892C19.7719 22.3422 23.6155 22.6672 26.0248 34.1214C27.0766 38.0796 30.2891 38.5959 31.6467 38.7107L31.6659 38.7489Z" fill="white"/>
<path d="M42.8718 39.4222H34.1139V38.7529C36.1026 38.1793 36.1982 37.2423 36.1982 34.5843V20.1663C36.1982 18.3497 35.7775 17.6039 33.5976 17.0494V16.4184L40.7301 14.9077V34.6035C40.7301 37.51 40.9978 38.294 42.8718 38.7721V39.4413V39.4222Z" fill="white"/>
<path d="M35.3184 7.90895C35.3184 6.3983 36.4657 5.25098 37.9764 5.25098C39.487 5.25098 40.6343 6.3983 40.6343 7.90895C40.6343 9.41959 39.4296 10.5669 37.9764 10.5669C36.5231 10.5669 35.3184 9.36222 35.3184 7.90895Z" fill="white"/>
<path d="M63.0838 37.3365C63.0838 37.3365 61.6306 39.4208 57.7679 39.8415V39.1149C61.8218 38.2353 60.8848 33.4356 57.2898 31.1027L52.0313 27.9285C47.0787 24.6012 45.8931 21.4652 48.0156 17.8703C48.0156 17.8703 49.3159 15.4226 53.5419 15.002V15.7286C49.8896 16.57 50.0043 20.7195 54.0582 23.3392L59.3168 26.6282C64.0591 29.5347 65.5697 33.7607 63.0647 37.3557L63.0838 37.3365Z" fill="white"/>
<path d="M47.3465 30.7197H47.9776C48.3409 33.894 49.4882 38.5407 55.0527 39.1526V39.8218C49.7368 39.5541 47.3465 37.7949 47.3465 37.7949V30.7197Z" fill="white"/>
<path d="M63.3899 22.9185H62.7206C62.4147 20.1075 61.1526 16.2449 56.2574 15.6712V15.002C61.2482 15.2123 63.3899 16.57 63.3899 16.57V22.9185Z" fill="white"/>
<path d="M88.6118 33.015L89.1854 33.2827C88.6691 35.7303 85.7435 39.8989 79.6053 39.8989C73.142 39.8989 68.5145 34.4874 68.5145 27.6034C68.5145 20.5282 72.6831 15.7286 78.4197 15.002V15.6712C75.7617 16.6082 73.4288 20.6621 73.4288 26.2457H85.5714C85.5714 20.0502 83.3914 16.6082 81.0968 15.6712V15.002C86.5657 15.5756 90.065 19.3809 90.065 26.9341H73.448C73.6583 33.9711 76.7752 36.782 80.8482 37.2027C84.0225 37.5086 87.6748 35.5964 88.6691 33.0341L88.6118 33.015Z" fill="white"/>
<path d="M133.453 32.3455C133.453 36.6097 133.3 38.0248 135.996 38.7514V39.4207H126.78V38.7514C128.175 38.2351 128.29 36.9731 128.29 32.3455V22.2873H114.025V32.3455C114.025 37.6615 114.082 38.2351 115.536 38.7514V39.4207H106.262V38.7514C109.015 38.0248 108.862 37.3364 108.862 32.3455V9.99182C108.862 5.30691 108.747 3.89187 106.262 3.43294V2.76367H115.536V3.43294C114.082 3.911 114.025 4.94359 114.025 9.99182V21.3886H128.29V9.99182C128.29 4.94359 128.233 3.89187 126.78 3.43294V2.76367H135.996V3.43294C133.549 3.911 133.453 4.94359 133.453 9.99182V32.3264V32.3455Z" fill="white"/>
<path d="M147.259 39.4222H138.501V38.7529C140.49 38.1793 140.585 37.2423 140.585 34.5843V20.1663C140.585 18.3497 140.165 17.6039 137.985 17.0494V16.4184L145.117 14.9077V34.6035C145.117 37.51 145.385 38.294 147.259 38.7721V39.4413V39.4222Z" fill="white"/>
<path d="M139.706 7.90895C139.706 6.3983 140.853 5.25098 142.364 5.25098C143.874 5.25098 145.021 6.3983 145.021 7.90895C145.021 9.41959 143.817 10.5669 142.364 10.5669C140.91 10.5669 139.706 9.36222 139.706 7.90895Z" fill="white"/>
<path d="M166.438 49.5758L166.802 50.2068C160.033 53.4385 152.632 52.5588 150.605 48.7918C149.095 45.9808 150.395 43.0169 152.69 40.9326L153.149 41.4107C151.217 44.3363 154.2 47.6636 154.086 47.5489C156.323 50.2068 161.945 51.5071 166.438 49.5758Z" fill="white"/>
<path d="M173.724 42.3853C173.724 42.3853 173.571 45.9228 169.135 48.8868L168.714 48.2175C171.678 45.8272 171.372 43.1693 171.372 43.1693C171.372 43.1693 171.219 40.5113 166.744 40.5113H159.822C156.285 40.5113 152.116 39.8803 152.116 35.4631C152.116 35.4631 151.906 31.0841 156.763 29.6882C154.009 28.4835 152.651 25.6343 152.651 22.8616C152.651 18.999 155.826 15.5187 161.046 15.0024V15.6717C158.904 16.188 157.183 18.062 157.183 22.8616C157.183 27.6613 159.057 29.5352 161.046 30.1089V30.7782C159.688 30.6634 158.484 30.4722 157.509 30.0515C154.851 30.5678 152.365 35.7881 158.56 35.7881H164.813C168.408 35.7881 174.661 35.5778 173.762 42.4044L173.724 42.3853Z" fill="white"/>
<path d="M176.439 18.6355C175.445 19.4769 173.934 19.3622 173.112 18.3296C172.691 17.8133 172.538 17.1823 172.691 16.6086C172.787 16.1879 171.123 16.3983 170.186 17.7559C171.487 19.0562 172.175 20.9876 172.175 22.8615C172.175 26.7624 169.001 30.2618 163.742 30.7781V30.1088C165.769 29.5925 167.643 27.6612 167.643 22.8615C167.643 18.1192 165.674 16.2453 163.742 15.729V15.0023C166.247 15.2127 168.332 16.0923 169.728 17.3544C171.085 15.3274 173.208 14.5434 174.412 14.4478C175.292 14.3522 176.229 14.6581 176.803 15.3274C177.625 16.36 177.472 17.8324 176.439 18.6547V18.6355Z" fill="white"/>
<path d="M187.683 38.7515V39.4207H178.925V38.7515C180.895 38.1778 181.01 37.2408 181.01 34.5828V6.03358C181.01 4.21698 180.532 3.58595 178.409 3.22263V2.55336L185.542 0.985352V34.5828C185.542 37.4512 185.809 38.2734 187.683 38.7515Z" fill="white"/>
<path d="M203 38.7883V39.4194H194.242V38.7883C196.231 38.2147 196.326 37.2203 196.326 34.5624V23.4716C196.326 19.7236 194.548 17.5437 190.915 17.5437C189.672 17.5437 188.525 18.1174 187.588 18.9587L187.071 18.1174C188.678 16.3008 191.355 14.8857 193.688 14.8857C197.952 14.8857 200.878 17.0274 200.878 23.2803V34.5815C200.878 37.4498 201.183 38.3294 203.019 38.8075L203 38.7883Z" fill="white"/>
</g>
<defs>
<clipPath id="clip0_24_159">
<rect width="203" height="51.2089" fill="white" transform="translate(0 0.985352)"/>
</clipPath>
</defs>
</svg>
