<svg width="487" height="97" viewBox="0 0 487 97" fill="none" xmlns="http://www.w3.org/2000/svg">
<g clip-path="url(#clip0_489_24)">
<path d="M70.7458 87.1505L69.3002 96.7598H0.150391C3.01155 90.1118 2.83085 86.3648 2.83085 81.5601V15.5034C2.83085 10.8498 3.01155 6.7704 0.150391 0.303731H20.8712H67.6136L67.7341 10.0944C66.4691 9.58068 65.4451 9.12741 64.5115 8.70435C62.0117 7.76759 58.8494 6.89127 55.5666 6.92149C50.3262 6.92149 28.3404 6.92149 18.5823 6.92149V44.6941H61.9816L59.8433 52.1277H18.5823V89.9305C26.5634 89.9305 52.073 89.9305 57.7049 89.9305C64.3007 90.0514 70.8663 86.3044 70.8663 86.3044L70.6856 87.1202C70.6856 87.1505 70.7157 87.1505 70.7458 87.1505ZM174.832 96.7598C175.766 92.0156 175.766 85.3072 175.013 79.8377L168.869 34.3897L135.318 96.7296H128.933L94.8398 31.5794L88.214 80.8349C87.4911 86.5159 87.2803 93.7078 87.8827 96.7598H75.8959C78.215 91.8343 78.7872 89.6888 79.8714 81.5903L90.7137 0.303731H96.2252L136.01 76.1511L175.766 0.303731H179.922L191.125 81.409C192.24 89.4773 193.083 91.8041 195.312 96.7598H174.832ZM275.816 96.7598L259.854 61.4349H227.748L211.997 96.7598H210.642H199.528H199.468C203.444 91.8041 204.799 89.5075 207.6 83.343L244.825 0.303731H249.011L285.634 81.0162C289.549 88.9031 291.387 91.3508 296.988 96.7598H275.816ZM376.258 96.7598L360.296 61.4349H328.19L312.439 96.7598H311.114H299.97H299.91C303.885 91.8041 305.241 89.5075 308.042 83.343L345.267 0.303731H349.453L386.106 81.0162C390.021 88.9031 391.859 91.3508 397.46 96.7598H376.258ZM467.273 96.8202C457.665 88.0268 445.227 76.3626 429.656 57.8692C425.199 52.6414 422.066 51.9766 420.049 51.8558V81.5601C420.049 86.3346 420.049 90.1118 422.759 96.7598H401.617C404.478 90.1118 404.297 86.3648 404.297 81.5601V15.443C404.297 10.7894 404.478 6.70996 401.617 0.243294H422.338C436.493 0.243294 469.953 -1.02587 469.953 26.7143C469.953 41.3701 458.358 49.257 444.745 51.2514L440.709 51.6442C440.709 51.6442 484.861 94.9467 486.759 96.8202H467.273ZM442.245 45.7215L442.215 45.7517C451.13 42.3673 454.142 33.876 453.84 26.6841C453.509 19.7642 450.407 4.71557 420.079 5.92429V47.0511C420.079 47.0511 437.065 47.9878 441.824 45.9028C442.095 45.7819 442.245 45.7215 442.245 45.7215ZM331.262 54.6963H357.193L344.122 25.8984L331.262 54.6963ZM230.85 54.6963H256.782L243.711 25.8984L230.85 54.6963Z" fill="white"/>
</g>
<defs>
<clipPath id="clip0_489_24">
<rect width="487" height="97" fill="white"/>
</clipPath>
</defs>
</svg>
